<svg width="24" height="22" viewBox="0 0 24 22" fill="none" xmlns="http://www.w3.org/2000/svg">
<path d="M23.8046 8.41421L22.8617 7.47129C22.6013 7.21087 22.1792 7.21087 21.9188 7.47129L21.4475 7.94254L20.2433 6.73837C20.4779 5.85046 20.2583 4.86754 19.5621 4.17129L17.6767 2.28587C15.0733 -0.317459 10.8521 -0.317459 8.24835 2.28587L12.0196 4.17129V4.95254C12.0196 5.65962 12.3004 6.33796 12.8008 6.83796L14.8483 8.88546C15.5446 9.58171 16.5275 9.80129 17.4154 9.56671L18.6196 10.7709L18.1483 11.2421C17.8879 11.5025 17.8879 11.9246 18.1483 12.185L19.0913 13.128C19.3517 13.3884 19.7738 13.3884 20.0342 13.128L23.8054 9.35671C24.065 9.09671 24.065 8.67462 23.8046 8.41421ZM11.8579 7.78087C11.7038 7.62671 11.5729 7.45629 11.4475 7.28296L0.818348 17.2067C-0.247069 18.2017 -0.275819 19.8813 0.754598 20.9121C1.78501 21.943 3.46501 21.9142 4.46001 20.8484L14.3821 10.2205C14.2171 10.0992 14.0529 9.97587 13.9054 9.82837L11.8579 7.78087Z" fill="white" fill-opacity="0.5"/>
</svg>
