<svg width="51" height="37" viewBox="0 0 51 37" fill="none" xmlns="http://www.w3.org/2000/svg">
<path d="M22.2249 36.4649L17.3639 35.2204C16.8539 35.0938 16.567 34.6227 16.7105 34.1727L27.5878 1.11179C27.7313 0.66179 28.2652 0.408665 28.7752 0.535228L33.6361 1.77976C34.1461 1.90632 34.433 2.37742 34.2895 2.82742L23.4122 35.8884C23.2608 36.3384 22.7349 36.5985 22.2249 36.4649ZM13.1405 28.5759L16.6069 25.3134C16.9734 24.9688 16.9495 24.4204 16.5431 24.104L9.32345 18.5001L16.5431 12.8962C16.9495 12.5798 16.9814 12.0313 16.6069 11.6868L13.1405 8.42429C12.7819 8.08679 12.1763 8.0657 11.7858 8.38913L0.302821 17.8813C-0.103585 18.2118 -0.103585 18.7813 0.302821 19.1118L11.7858 28.611C12.1763 28.9344 12.7819 28.9204 13.1405 28.5759ZM39.2142 28.618L50.6972 19.1188C51.1036 18.7884 51.1036 18.2188 50.6972 17.8884L39.2142 8.3821C38.8317 8.0657 38.2261 8.07976 37.8595 8.41726L34.3931 11.6798C34.0266 12.0243 34.0505 12.5727 34.4569 12.8891L41.6766 18.5001L34.4569 24.104C34.0505 24.4204 34.0186 24.9688 34.3931 25.3134L37.8595 28.5759C38.2181 28.9204 38.8238 28.9344 39.2142 28.618Z" fill="#2B313A"/>
</svg>
