<svg width="24" height="20" viewBox="0 0 24 20" fill="none" xmlns="http://www.w3.org/2000/svg">
<path d="M9.56363 10.2119C9.798 10.4463 10.1779 10.4463 10.4123 10.2119L10.8364 9.78777C11.0708 9.5534 11.0708 9.17353 10.8364 8.93915L9.49688 7.60002L10.836 6.26052C11.0704 6.02615 11.0704 5.64627 10.836 5.4119L10.4119 4.98777C10.1775 4.7534 9.79763 4.7534 9.56325 4.98777L7.3755 7.17552C7.14113 7.4099 7.14113 7.78977 7.3755 8.02415L9.56363 10.2119ZM13.164 9.78815L13.5881 10.2123C13.8225 10.4466 14.2024 10.4466 14.4368 10.2123L16.6245 8.02452C16.8589 7.79015 16.8589 7.41027 16.6245 7.1759L14.4368 4.98815C14.2024 4.75377 13.8225 4.75377 13.5881 4.98815L13.164 5.41227C12.9296 5.64665 12.9296 6.02652 13.164 6.2609L14.5031 7.60002L13.164 8.93952C12.9296 9.1739 12.9296 9.55378 13.164 9.78815ZM23.4 16H14.3078C14.28 16.7429 13.7561 17.2 13.08 17.2H10.8C10.0991 17.2 9.56175 16.5449 9.57113 16H0.6C0.27 16 0 16.27 0 16.6V17.2C0 18.52 1.08 19.6 2.4 19.6H21.6C22.92 19.6 24 18.52 24 17.2V16.6C24 16.27 23.73 16 23.4 16ZM21.6 2.20002C21.6 1.21002 20.79 0.400024 19.8 0.400024H4.2C3.21 0.400024 2.4 1.21002 2.4 2.20002V14.8H21.6V2.20002ZM19.2 12.4H4.8V2.80002H19.2V12.4Z" fill="white" fill-opacity="0.5"/>
</svg>
