<svg width="45" height="41" viewBox="0 0 45 41" fill="none" xmlns="http://www.w3.org/2000/svg">
<path d="M43.6172 14.875H31.2656C29.9408 14.875 28.875 13.9346 28.875 12.7656V1.86719C28.875 1.28711 29.4129 0.8125 30.0703 0.8125H34.0547C34.7121 0.8125 35.25 1.28711 35.25 1.86719V9.25H43.6172C44.2746 9.25 44.8125 9.72461 44.8125 10.3047V13.8203C44.8125 14.4004 44.2746 14.875 43.6172 14.875ZM16.125 12.7656V1.86719C16.125 1.28711 15.5871 0.8125 14.9297 0.8125H10.9453C10.2879 0.8125 9.75 1.28711 9.75 1.86719V9.25H1.38281C0.725391 9.25 0.1875 9.72461 0.1875 10.3047V13.8203C0.1875 14.4004 0.725391 14.875 1.38281 14.875H13.7344C15.0592 14.875 16.125 13.9346 16.125 12.7656ZM16.125 39.1328V28.2344C16.125 27.0654 15.0592 26.125 13.7344 26.125H1.38281C0.725391 26.125 0.1875 26.5996 0.1875 27.1797V30.6953C0.1875 31.2754 0.725391 31.75 1.38281 31.75H9.75V39.1328C9.75 39.7129 10.2879 40.1875 10.9453 40.1875H14.9297C15.5871 40.1875 16.125 39.7129 16.125 39.1328ZM35.25 39.1328V31.75H43.6172C44.2746 31.75 44.8125 31.2754 44.8125 30.6953V27.1797C44.8125 26.5996 44.2746 26.125 43.6172 26.125H31.2656C29.9408 26.125 28.875 27.0654 28.875 28.2344V39.1328C28.875 39.7129 29.4129 40.1875 30.0703 40.1875H34.0547C34.7121 40.1875 35.25 39.7129 35.25 39.1328Z" fill="#2B313A"/>
</svg>
